<svg width="236" height="34" viewBox="0 0 236 34" fill="none" xmlns="http://www.w3.org/2000/svg">
<path d="M0 5.44C0 2.43557 2.10493 0 4.7015 0L222.9 0C224.289 0 225.607 0.710532 226.5 1.94104L234.892 13.501C236.361 15.5242 236.361 18.4758 234.892 20.499L226.5 32.059C225.607 33.2895 224.289 34 222.9 34H4.7015C2.10493 34 0 31.5644 0 28.56V5.44Z" fill="#3B7CFF"/>
<path d="M20.432 12.448V10.736H13.296V22H17.584C19.824 22 21.248 20.512 21.248 18.528C21.248 16.464 19.856 15.088 17.568 15.088H15.2V12.448H20.432ZM17.312 16.704C18.56 16.704 19.312 17.392 19.312 18.512C19.312 19.632 18.56 20.336 17.312 20.336H15.2V16.704H17.312ZM30.1779 18.448V17.696C30.1779 15.232 28.7219 13.648 26.4819 13.648C24.1779 13.648 22.5619 15.28 22.5619 17.936C22.5619 20.576 24.1779 22.192 26.5939 22.192C28.8179 22.192 29.8739 20.832 30.0819 19.792H28.2899C28.1619 20.16 27.6019 20.672 26.6259 20.672C25.3139 20.672 24.4339 19.712 24.4339 18.48V18.448H30.1779ZM26.4659 15.168C27.6019 15.168 28.3059 15.888 28.3539 17.072H24.4499C24.5619 15.92 25.3139 15.168 26.4659 15.168ZM35.4205 20.576C34.1405 20.576 33.3085 19.52 33.3085 17.92C33.3085 16.352 34.1085 15.264 35.4045 15.264C36.5245 15.264 37.0365 15.984 37.2285 16.592H39.0045C38.8125 15.136 37.6125 13.648 35.4045 13.648C32.9885 13.648 31.4525 15.472 31.4525 17.92C31.4525 20.4 33.0045 22.192 35.4045 22.192C37.5005 22.192 38.8445 20.816 39.0205 19.216H37.2445C37.0845 19.84 36.5885 20.576 35.4205 20.576ZM40.6978 13.84V22H42.5218V15.44H45.9778V22H47.8018V13.84H40.6978ZM49.1463 22.032H49.6423C51.4343 22.032 52.2663 21.12 52.4423 18.864L52.7143 15.44H55.2903V22H57.1143V13.84H51.1143L50.7143 18.736C50.6183 19.968 50.3143 20.432 49.4023 20.432H49.1463V22.032ZM64.1224 16.592V17.056H62.1384C60.1064 17.056 58.8584 18.016 58.8584 19.632C58.8584 21.232 60.1064 22.192 61.6904 22.192C62.7464 22.192 63.6424 21.792 64.2184 21.072V22H65.9144V16.624C65.9144 14.72 64.5864 13.648 62.5864 13.648C60.5864 13.648 59.4184 14.768 59.1784 16.096H60.9064C61.0824 15.584 61.5784 15.152 62.5224 15.152C63.4344 15.152 64.1224 15.632 64.1224 16.592ZM62.0904 20.704C61.2744 20.704 60.6984 20.304 60.6984 19.568C60.6984 18.832 61.3384 18.432 62.2664 18.432H64.1224V18.928C64.1224 20.032 63.1784 20.704 62.0904 20.704ZM67.2765 15.44H69.8845V22H71.7085V15.44H74.3165V13.84H67.2765V15.44ZM77.7093 22V18.592H81.2133V22H83.0373V13.84H81.2133V16.976H77.7093V13.84H75.8853V22H77.7093ZM88.7966 13.648C86.3966 13.648 84.7806 15.392 84.7806 17.92C84.7806 20.448 86.3966 22.192 88.7966 22.192C91.1966 22.192 92.8126 20.448 92.8126 17.92C92.8126 15.392 91.1966 13.648 88.7966 13.648ZM88.7966 20.576C87.4526 20.576 86.6366 19.488 86.6366 17.92C86.6366 16.352 87.4526 15.264 88.7966 15.264C90.1406 15.264 90.9566 16.352 90.9566 17.92C90.9566 19.488 90.1406 20.576 88.7966 20.576ZM101.709 18.448V17.696C101.709 15.232 100.253 13.648 98.0131 13.648C95.7091 13.648 94.0931 15.28 94.0931 17.936C94.0931 20.576 95.7091 22.192 98.1251 22.192C100.349 22.192 101.405 20.832 101.613 19.792H99.8211C99.6931 20.16 99.1331 20.672 98.1571 20.672C96.8451 20.672 95.9651 19.712 95.9651 18.48V18.448H101.709ZM97.9971 15.168C99.1331 15.168 99.8371 15.888 99.8851 17.072H95.9811C96.0931 15.92 96.8451 15.168 97.9971 15.168ZM110.484 13.648C108.084 13.648 106.468 15.392 106.468 17.92C106.468 20.448 108.084 22.192 110.484 22.192C112.884 22.192 114.5 20.448 114.5 17.92C114.5 15.392 112.884 13.648 110.484 13.648ZM110.484 20.576C109.14 20.576 108.324 19.488 108.324 17.92C108.324 16.352 109.14 15.264 110.484 15.264C111.828 15.264 112.644 16.352 112.644 17.92C112.644 19.488 111.828 20.576 110.484 20.576ZM120.421 13.904C119.221 13.904 118.261 14.352 117.653 15.232C117.829 13.52 118.501 12.64 120.229 12.336L123.269 11.84V10.176L119.957 10.784C116.997 11.328 115.909 13.296 115.909 17.136C115.909 20.336 117.509 22.192 120.133 22.192C122.549 22.192 124.069 20.304 124.069 18C124.069 15.44 122.533 13.904 120.421 13.904ZM120.037 20.608C118.661 20.608 117.813 19.536 117.813 17.968C117.813 16.416 118.741 15.456 120.053 15.456C121.397 15.456 122.213 16.528 122.213 18C122.213 19.488 121.413 20.608 120.037 20.608ZM129.311 20.576C128.031 20.576 127.199 19.52 127.199 17.92C127.199 16.352 127.999 15.264 129.295 15.264C130.415 15.264 130.927 15.984 131.119 16.592H132.895C132.703 15.136 131.503 13.648 129.295 13.648C126.879 13.648 125.343 15.472 125.343 17.92C125.343 20.4 126.895 22.192 129.295 22.192C131.391 22.192 132.735 20.816 132.911 19.216H131.135C130.975 19.84 130.479 20.576 129.311 20.576ZM133.724 22.032H134.22C136.012 22.032 136.844 21.12 137.02 18.864L137.292 15.44H139.868V22H141.692V13.84H135.692L135.292 18.736C135.196 19.968 134.892 20.432 133.98 20.432H133.724V22.032ZM149.229 13.84L147.085 19.68L144.941 13.84H142.973L146.109 21.856L144.845 25.056H146.797L151.197 13.84H149.229ZM158.335 13.84H156.543V17.296L153.695 13.84H151.599L154.767 17.728L151.567 22H153.695L156.543 18.16V22H158.335V18.16L161.183 22H163.327L160.111 17.68L163.279 13.84H161.183L158.335 17.296V13.84ZM171.883 13.84H170.123L166.427 19.28V13.84H164.635V22H166.395L170.091 16.576V22H171.883V13.84ZM174.088 22H177.912C179.768 22 180.776 20.992 180.776 19.68C180.776 18.56 180.072 17.904 179.304 17.696C179.896 17.472 180.44 16.896 180.44 15.952C180.44 14.768 179.576 13.84 177.752 13.84H174.088V22ZM177.688 18.512C178.52 18.512 178.952 18.88 178.952 19.536C178.952 20.192 178.52 20.592 177.688 20.592H175.88V18.512H177.688ZM177.528 15.248C178.264 15.248 178.648 15.568 178.648 16.176C178.648 16.768 178.248 17.136 177.528 17.136H175.88V15.248H177.528ZM187.31 16.592V17.056H185.326C183.294 17.056 182.046 18.016 182.046 19.632C182.046 21.232 183.294 22.192 184.878 22.192C185.934 22.192 186.83 21.792 187.406 21.072V22H189.102V16.624C189.102 14.72 187.774 13.648 185.774 13.648C183.774 13.648 182.606 14.768 182.366 16.096H184.094C184.27 15.584 184.766 15.152 185.71 15.152C186.622 15.152 187.31 15.632 187.31 16.592ZM185.278 20.704C184.462 20.704 183.886 20.304 183.886 19.568C183.886 18.832 184.526 18.432 185.454 18.432H187.31V18.928C187.31 20.032 186.366 20.704 185.278 20.704ZM193.069 22V18.592H196.573V22H198.397V13.84H196.573V16.976H193.069V13.84H191.245V22H193.069ZM207.852 13.84H206.092L202.396 19.28V13.84H200.604V22H202.364L206.06 16.576V22H207.852V13.84ZM217.209 18.448V17.696C217.209 15.232 215.753 13.648 213.513 13.648C211.209 13.648 209.593 15.28 209.593 17.936C209.593 20.576 211.209 22.192 213.625 22.192C215.849 22.192 216.905 20.832 217.113 19.792H215.321C215.193 20.16 214.633 20.672 213.657 20.672C212.345 20.672 211.465 19.712 211.465 18.48V18.448H217.209ZM213.497 15.168C214.633 15.168 215.337 15.888 215.385 17.072H211.481C211.593 15.92 212.345 15.168 213.497 15.168Z" fill="white"/>
</svg>
