<svg width="171" height="34" viewBox="0 0 171 34" fill="none" xmlns="http://www.w3.org/2000/svg">
<path d="M0 5.44C0 2.43557 2.10493 0 4.7015 0L157.906 0C159.295 0 160.613 0.710532 161.506 1.94104L169.898 13.501C171.367 15.5242 171.367 18.4758 169.898 20.499L161.506 32.059C160.613 33.2895 159.295 34 157.906 34H4.7015C2.10493 34 0 31.5644 0 28.56V5.44Z" fill="#3B7CFF"/>
<path d="M18.032 10.544C14.864 10.544 12.752 12.96 12.752 16.368C12.752 19.776 14.864 22.192 18.032 22.192C21.2 22.192 23.312 19.776 23.312 16.368C23.312 12.96 21.2 10.544 18.032 10.544ZM18.032 20.448C15.952 20.448 14.704 18.752 14.704 16.368C14.704 13.984 15.952 12.288 18.032 12.288C20.112 12.288 21.376 13.984 21.376 16.368C21.376 18.752 20.112 20.448 18.032 20.448ZM29.3581 13.904C28.1581 13.904 27.1981 14.352 26.5901 15.232C26.7661 13.52 27.4381 12.64 29.1661 12.336L32.2061 11.84V10.176L28.8941 10.784C25.9341 11.328 24.8461 13.296 24.8461 17.136C24.8461 20.336 26.4461 22.192 29.0701 22.192C31.4861 22.192 33.0061 20.304 33.0061 18C33.0061 15.44 31.4701 13.904 29.3581 13.904ZM28.9741 20.608C27.5981 20.608 26.7501 19.536 26.7501 17.968C26.7501 16.416 27.6781 15.456 28.9901 15.456C30.3341 15.456 31.1501 16.528 31.1501 18C31.1501 19.488 30.3501 20.608 28.9741 20.608ZM38.2486 20.576C36.9686 20.576 36.1366 19.52 36.1366 17.92C36.1366 16.352 36.9366 15.264 38.2326 15.264C39.3526 15.264 39.8646 15.984 40.0566 16.592H41.8326C41.6406 15.136 40.4406 13.648 38.2326 13.648C35.8166 13.648 34.2806 15.472 34.2806 17.92C34.2806 20.4 35.8326 22.192 38.2326 22.192C40.3286 22.192 41.6726 20.816 41.8486 19.216H40.0726C39.9126 19.84 39.4166 20.576 38.2486 20.576ZM42.6619 22.032H43.1579C44.9499 22.032 45.7819 21.12 45.9579 18.864L46.2299 15.44H48.8059V22H50.6299V13.84H44.6299L44.2299 18.736C44.1339 19.968 43.8299 20.432 42.9179 20.432H42.6619V22.032ZM58.166 13.84L56.022 19.68L53.878 13.84H51.91L55.046 21.856L53.782 25.056H55.734L60.134 13.84H58.166ZM67.2729 13.84H65.4809V17.296L62.6329 13.84H60.5369L63.7049 17.728L60.5049 22H62.6329L65.4809 18.16V22H67.2729V18.16L70.1209 22H72.2649L69.0489 17.68L72.2169 13.84H70.1209L67.2729 17.296V13.84ZM80.8208 13.84H79.0608L75.3648 19.28V13.84H73.5728V22H75.3328L79.0288 16.576V22H80.8208V13.84ZM83.0259 22H86.8499C88.7059 22 89.7139 20.992 89.7139 19.68C89.7139 18.56 89.0099 17.904 88.2419 17.696C88.8339 17.472 89.3779 16.896 89.3779 15.952C89.3779 14.768 88.5139 13.84 86.6899 13.84H83.0259V22ZM86.6259 18.512C87.4579 18.512 87.8899 18.88 87.8899 19.536C87.8899 20.192 87.4579 20.592 86.6259 20.592H84.8179V18.512H86.6259ZM86.4659 15.248C87.2019 15.248 87.5859 15.568 87.5859 16.176C87.5859 16.768 87.1859 17.136 86.4659 17.136H84.8179V15.248H86.4659ZM96.2474 16.592V17.056H94.2634C92.2314 17.056 90.9834 18.016 90.9834 19.632C90.9834 21.232 92.2314 22.192 93.8154 22.192C94.8714 22.192 95.7674 21.792 96.3434 21.072V22H98.0394V16.624C98.0394 14.72 96.7114 13.648 94.7114 13.648C92.7114 13.648 91.5434 14.768 91.3034 16.096H93.0314C93.2074 15.584 93.7034 15.152 94.6474 15.152C95.5594 15.152 96.2474 15.632 96.2474 16.592ZM94.2154 20.704C93.3994 20.704 92.8234 20.304 92.8234 19.568C92.8234 18.832 93.4634 18.432 94.3914 18.432H96.2474V18.928C96.2474 20.032 95.3034 20.704 94.2154 20.704ZM102.006 22V18.592H105.51V22H107.334V13.84H105.51V16.976H102.006V13.84H100.182V22H102.006ZM116.79 13.84H115.03L111.334 19.28V13.84H109.542V22H111.302L114.998 16.576V22H116.79V13.84ZM126.147 18.448V17.696C126.147 15.232 124.691 13.648 122.451 13.648C120.147 13.648 118.531 15.28 118.531 17.936C118.531 20.576 120.147 22.192 122.563 22.192C124.787 22.192 125.843 20.832 126.051 19.792H124.259C124.131 20.16 123.571 20.672 122.595 20.672C121.283 20.672 120.403 19.712 120.403 18.48V18.448H126.147ZM122.435 15.168C123.571 15.168 124.275 15.888 124.323 17.072H120.419C120.531 15.92 121.283 15.168 122.435 15.168ZM135.546 10.544C132.81 10.544 131.146 12.944 131.146 16.368C131.146 19.792 132.81 22.192 135.546 22.192C138.298 22.192 139.946 19.792 139.946 16.368C139.946 12.944 138.298 10.544 135.546 10.544ZM135.546 20.496C133.898 20.496 133.066 18.688 133.066 16.368C133.066 14.048 133.898 12.24 135.546 12.24C137.21 12.24 138.026 14.048 138.026 16.368C138.026 18.688 137.21 20.496 135.546 20.496ZM141.34 20.24H142.908V22H144.764V20.24H148.188V18.88H144.764V17.632H146.78C149.068 17.632 150.476 16.192 150.476 14.192C150.476 12.192 149.068 10.736 146.716 10.736H142.908V16.16H141.34V17.632H142.908V18.88H141.34V20.24ZM146.492 12.336C147.852 12.336 148.588 13.088 148.588 14.208C148.588 15.344 147.836 16.096 146.492 16.096H144.764V12.336H146.492Z" fill="white"/>
</svg>
